<?xml version="1.0" encoding="utf-8" standalone="no"?>
<!DOCTYPE svg PUBLIC "-//W3C//DTD SVG 1.1//EN"
  "http://www.w3.org/Graphics/SVG/1.1/DTD/svg11.dtd">
<!-- Created with matplotlib (http://matplotlib.org/) -->
<svg height="432pt" version="1.1" viewBox="0 0 720 432" width="720pt" xmlns="http://www.w3.org/2000/svg" xmlns:xlink="http://www.w3.org/1999/xlink">
 <defs>
  <style type="text/css">
*{stroke-linecap:butt;stroke-linejoin:round;}
  </style>
 </defs>
 <g id="figure_1">
  <g id="patch_1">
   <path d="M 0 432 
L 720 432 
L 720 0 
L 0 0 
z
" style="fill:none;"/>
  </g>
  <g id="axes_1">
   <g id="patch_2">
    <path d="M 90 378 
L 648 378 
L 648 51.84 
L 90 51.84 
z
" style="fill:none;"/>
   </g>
   <g id="PathCollection_1">
    <defs>
     <path d="M 0 1.581139 
C 0.419323 1.581139 0.821528 1.41454 1.118034 1.118034 
C 1.41454 0.821528 1.581139 0.419323 1.581139 0 
C 1.581139 -0.419323 1.41454 -0.821528 1.118034 -1.118034 
C 0.821528 -1.41454 0.419323 -1.581139 0 -1.581139 
C -0.419323 -1.581139 -0.821528 -1.41454 -1.118034 -1.118034 
C -1.41454 -0.821528 -1.581139 -0.419323 -1.581139 0 
C -1.581139 0.419323 -1.41454 0.821528 -1.118034 1.118034 
C -0.821528 1.41454 -0.419323 1.581139 0 1.581139 
z
" id="mebfdf3b6cf" style="stroke:#000000;"/>
    </defs>
    <g clip-path="url(#pb3dd19ab82)">
     <use style="stroke:#000000;" x="90" xlink:href="#mebfdf3b6cf" y="252.920527"/>
     <use style="stroke:#000000;" x="91.829628" xlink:href="#mebfdf3b6cf" y="252.269406"/>
     <use style="stroke:#000000;" x="93.659256" xlink:href="#mebfdf3b6cf" y="251.618284"/>
     <use style="stroke:#000000;" x="95.488885" xlink:href="#mebfdf3b6cf" y="250.967163"/>
     <use style="stroke:#000000;" x="97.318513" xlink:href="#mebfdf3b6cf" y="250.316042"/>
     <use style="stroke:#000000;" x="99.148141" xlink:href="#mebfdf3b6cf" y="249.664921"/>
     <use style="stroke:#000000;" x="100.977769" xlink:href="#mebfdf3b6cf" y="249.0138"/>
     <use style="stroke:#000000;" x="102.807397" xlink:href="#mebfdf3b6cf" y="248.362679"/>
     <use style="stroke:#000000;" x="104.637025" xlink:href="#mebfdf3b6cf" y="247.711557"/>
     <use style="stroke:#000000;" x="106.466654" xlink:href="#mebfdf3b6cf" y="247.060436"/>
     <use style="stroke:#000000;" x="108.296282" xlink:href="#mebfdf3b6cf" y="246.409315"/>
     <use style="stroke:#000000;" x="110.12591" xlink:href="#mebfdf3b6cf" y="245.758194"/>
     <use style="stroke:#000000;" x="111.955538" xlink:href="#mebfdf3b6cf" y="245.107073"/>
     <use style="stroke:#000000;" x="113.785166" xlink:href="#mebfdf3b6cf" y="244.455951"/>
     <use style="stroke:#000000;" x="115.614794" xlink:href="#mebfdf3b6cf" y="243.80483"/>
     <use style="stroke:#000000;" x="117.444423" xlink:href="#mebfdf3b6cf" y="243.153709"/>
     <use style="stroke:#000000;" x="119.274051" xlink:href="#mebfdf3b6cf" y="242.502588"/>
     <use style="stroke:#000000;" x="121.103679" xlink:href="#mebfdf3b6cf" y="241.851467"/>
     <use style="stroke:#000000;" x="122.933307" xlink:href="#mebfdf3b6cf" y="241.200346"/>
     <use style="stroke:#000000;" x="124.762935" xlink:href="#mebfdf3b6cf" y="240.549224"/>
     <use style="stroke:#000000;" x="126.592563" xlink:href="#mebfdf3b6cf" y="239.898103"/>
     <use style="stroke:#000000;" x="128.422192" xlink:href="#mebfdf3b6cf" y="239.246982"/>
     <use style="stroke:#000000;" x="130.25182" xlink:href="#mebfdf3b6cf" y="238.595861"/>
     <use style="stroke:#000000;" x="132.081448" xlink:href="#mebfdf3b6cf" y="237.94474"/>
     <use style="stroke:#000000;" x="133.911076" xlink:href="#mebfdf3b6cf" y="237.293618"/>
     <use style="stroke:#000000;" x="135.740704" xlink:href="#mebfdf3b6cf" y="236.642497"/>
     <use style="stroke:#000000;" x="137.570332" xlink:href="#mebfdf3b6cf" y="235.991376"/>
     <use style="stroke:#000000;" x="139.399961" xlink:href="#mebfdf3b6cf" y="235.340255"/>
     <use style="stroke:#000000;" x="141.229589" xlink:href="#mebfdf3b6cf" y="234.689134"/>
     <use style="stroke:#000000;" x="143.059217" xlink:href="#mebfdf3b6cf" y="234.038013"/>
     <use style="stroke:#000000;" x="144.888845" xlink:href="#mebfdf3b6cf" y="233.386891"/>
     <use style="stroke:#000000;" x="146.718473" xlink:href="#mebfdf3b6cf" y="232.73577"/>
     <use style="stroke:#000000;" x="148.548102" xlink:href="#mebfdf3b6cf" y="232.084649"/>
     <use style="stroke:#000000;" x="150.37773" xlink:href="#mebfdf3b6cf" y="231.433528"/>
     <use style="stroke:#000000;" x="152.207358" xlink:href="#mebfdf3b6cf" y="230.782407"/>
     <use style="stroke:#000000;" x="154.036986" xlink:href="#mebfdf3b6cf" y="230.131285"/>
     <use style="stroke:#000000;" x="155.866614" xlink:href="#mebfdf3b6cf" y="229.480164"/>
     <use style="stroke:#000000;" x="157.696242" xlink:href="#mebfdf3b6cf" y="228.829043"/>
     <use style="stroke:#000000;" x="159.525871" xlink:href="#mebfdf3b6cf" y="228.177922"/>
     <use style="stroke:#000000;" x="161.355499" xlink:href="#mebfdf3b6cf" y="227.526801"/>
     <use style="stroke:#000000;" x="163.185127" xlink:href="#mebfdf3b6cf" y="226.87568"/>
     <use style="stroke:#000000;" x="165.014755" xlink:href="#mebfdf3b6cf" y="226.224558"/>
     <use style="stroke:#000000;" x="166.844383" xlink:href="#mebfdf3b6cf" y="225.573437"/>
     <use style="stroke:#000000;" x="168.674011" xlink:href="#mebfdf3b6cf" y="224.922316"/>
     <use style="stroke:#000000;" x="170.50364" xlink:href="#mebfdf3b6cf" y="224.271195"/>
     <use style="stroke:#000000;" x="172.333268" xlink:href="#mebfdf3b6cf" y="223.620074"/>
     <use style="stroke:#000000;" x="174.162896" xlink:href="#mebfdf3b6cf" y="222.968953"/>
     <use style="stroke:#000000;" x="175.992524" xlink:href="#mebfdf3b6cf" y="222.317831"/>
     <use style="stroke:#000000;" x="177.822152" xlink:href="#mebfdf3b6cf" y="221.66671"/>
     <use style="stroke:#000000;" x="179.65178" xlink:href="#mebfdf3b6cf" y="221.015589"/>
     <use style="stroke:#000000;" x="181.481409" xlink:href="#mebfdf3b6cf" y="220.364468"/>
     <use style="stroke:#000000;" x="183.311037" xlink:href="#mebfdf3b6cf" y="219.713347"/>
     <use style="stroke:#000000;" x="185.140665" xlink:href="#mebfdf3b6cf" y="219.062225"/>
     <use style="stroke:#000000;" x="186.970293" xlink:href="#mebfdf3b6cf" y="218.411104"/>
     <use style="stroke:#000000;" x="188.799921" xlink:href="#mebfdf3b6cf" y="217.759983"/>
     <use style="stroke:#000000;" x="190.629549" xlink:href="#mebfdf3b6cf" y="217.108862"/>
     <use style="stroke:#000000;" x="192.459178" xlink:href="#mebfdf3b6cf" y="216.457741"/>
     <use style="stroke:#000000;" x="194.288806" xlink:href="#mebfdf3b6cf" y="215.80662"/>
     <use style="stroke:#000000;" x="196.118434" xlink:href="#mebfdf3b6cf" y="215.155498"/>
     <use style="stroke:#000000;" x="197.948062" xlink:href="#mebfdf3b6cf" y="214.504377"/>
     <use style="stroke:#000000;" x="199.77769" xlink:href="#mebfdf3b6cf" y="213.853256"/>
     <use style="stroke:#000000;" x="201.607319" xlink:href="#mebfdf3b6cf" y="213.202135"/>
     <use style="stroke:#000000;" x="203.436947" xlink:href="#mebfdf3b6cf" y="212.551014"/>
     <use style="stroke:#000000;" x="205.266575" xlink:href="#mebfdf3b6cf" y="211.899892"/>
     <use style="stroke:#000000;" x="207.096203" xlink:href="#mebfdf3b6cf" y="211.248771"/>
     <use style="stroke:#000000;" x="208.925831" xlink:href="#mebfdf3b6cf" y="210.59765"/>
     <use style="stroke:#000000;" x="210.755459" xlink:href="#mebfdf3b6cf" y="209.946529"/>
     <use style="stroke:#000000;" x="212.585088" xlink:href="#mebfdf3b6cf" y="209.295408"/>
     <use style="stroke:#000000;" x="214.414716" xlink:href="#mebfdf3b6cf" y="208.644287"/>
     <use style="stroke:#000000;" x="216.244344" xlink:href="#mebfdf3b6cf" y="207.993165"/>
     <use style="stroke:#000000;" x="218.073972" xlink:href="#mebfdf3b6cf" y="207.342044"/>
     <use style="stroke:#000000;" x="219.9036" xlink:href="#mebfdf3b6cf" y="206.690923"/>
     <use style="stroke:#000000;" x="221.733228" xlink:href="#mebfdf3b6cf" y="206.039802"/>
     <use style="stroke:#000000;" x="223.562857" xlink:href="#mebfdf3b6cf" y="205.388681"/>
     <use style="stroke:#000000;" x="225.392485" xlink:href="#mebfdf3b6cf" y="204.737559"/>
     <use style="stroke:#000000;" x="227.222113" xlink:href="#mebfdf3b6cf" y="204.086438"/>
     <use style="stroke:#000000;" x="229.051741" xlink:href="#mebfdf3b6cf" y="203.435317"/>
     <use style="stroke:#000000;" x="230.881369" xlink:href="#mebfdf3b6cf" y="202.784196"/>
     <use style="stroke:#000000;" x="232.710997" xlink:href="#mebfdf3b6cf" y="202.133075"/>
     <use style="stroke:#000000;" x="234.540626" xlink:href="#mebfdf3b6cf" y="201.481954"/>
     <use style="stroke:#000000;" x="236.370254" xlink:href="#mebfdf3b6cf" y="200.830832"/>
     <use style="stroke:#000000;" x="238.199882" xlink:href="#mebfdf3b6cf" y="200.179711"/>
     <use style="stroke:#000000;" x="240.02951" xlink:href="#mebfdf3b6cf" y="199.52859"/>
     <use style="stroke:#000000;" x="241.859138" xlink:href="#mebfdf3b6cf" y="198.877469"/>
     <use style="stroke:#000000;" x="243.688766" xlink:href="#mebfdf3b6cf" y="198.226348"/>
     <use style="stroke:#000000;" x="245.518395" xlink:href="#mebfdf3b6cf" y="197.575227"/>
     <use style="stroke:#000000;" x="247.348023" xlink:href="#mebfdf3b6cf" y="196.924105"/>
     <use style="stroke:#000000;" x="249.177651" xlink:href="#mebfdf3b6cf" y="196.272984"/>
     <use style="stroke:#000000;" x="251.007279" xlink:href="#mebfdf3b6cf" y="195.621863"/>
     <use style="stroke:#000000;" x="252.836907" xlink:href="#mebfdf3b6cf" y="194.970742"/>
     <use style="stroke:#000000;" x="254.666536" xlink:href="#mebfdf3b6cf" y="194.319621"/>
     <use style="stroke:#000000;" x="256.496164" xlink:href="#mebfdf3b6cf" y="193.668499"/>
     <use style="stroke:#000000;" x="258.325792" xlink:href="#mebfdf3b6cf" y="193.017378"/>
     <use style="stroke:#000000;" x="260.15542" xlink:href="#mebfdf3b6cf" y="192.366257"/>
     <use style="stroke:#000000;" x="261.985048" xlink:href="#mebfdf3b6cf" y="191.715136"/>
     <use style="stroke:#000000;" x="263.814676" xlink:href="#mebfdf3b6cf" y="191.064015"/>
     <use style="stroke:#000000;" x="265.644305" xlink:href="#mebfdf3b6cf" y="190.412894"/>
     <use style="stroke:#000000;" x="267.473933" xlink:href="#mebfdf3b6cf" y="189.761772"/>
     <use style="stroke:#000000;" x="269.303561" xlink:href="#mebfdf3b6cf" y="189.110651"/>
     <use style="stroke:#000000;" x="271.133189" xlink:href="#mebfdf3b6cf" y="188.45953"/>
     <use style="stroke:#000000;" x="272.962817" xlink:href="#mebfdf3b6cf" y="187.808409"/>
     <use style="stroke:#000000;" x="274.792445" xlink:href="#mebfdf3b6cf" y="187.157288"/>
     <use style="stroke:#000000;" x="276.622074" xlink:href="#mebfdf3b6cf" y="186.506166"/>
     <use style="stroke:#000000;" x="278.451702" xlink:href="#mebfdf3b6cf" y="185.855045"/>
     <use style="stroke:#000000;" x="280.28133" xlink:href="#mebfdf3b6cf" y="185.203924"/>
     <use style="stroke:#000000;" x="282.110958" xlink:href="#mebfdf3b6cf" y="184.552803"/>
     <use style="stroke:#000000;" x="283.940586" xlink:href="#mebfdf3b6cf" y="183.901682"/>
     <use style="stroke:#000000;" x="285.770214" xlink:href="#mebfdf3b6cf" y="183.250561"/>
     <use style="stroke:#000000;" x="287.599843" xlink:href="#mebfdf3b6cf" y="182.599439"/>
     <use style="stroke:#000000;" x="289.429471" xlink:href="#mebfdf3b6cf" y="181.948318"/>
     <use style="stroke:#000000;" x="291.259099" xlink:href="#mebfdf3b6cf" y="181.297197"/>
     <use style="stroke:#000000;" x="293.088727" xlink:href="#mebfdf3b6cf" y="180.646076"/>
     <use style="stroke:#000000;" x="294.918355" xlink:href="#mebfdf3b6cf" y="179.994955"/>
     <use style="stroke:#000000;" x="296.747983" xlink:href="#mebfdf3b6cf" y="179.343833"/>
     <use style="stroke:#000000;" x="298.577612" xlink:href="#mebfdf3b6cf" y="178.692712"/>
     <use style="stroke:#000000;" x="300.40724" xlink:href="#mebfdf3b6cf" y="178.041591"/>
     <use style="stroke:#000000;" x="302.236868" xlink:href="#mebfdf3b6cf" y="177.39047"/>
     <use style="stroke:#000000;" x="304.066496" xlink:href="#mebfdf3b6cf" y="176.739349"/>
     <use style="stroke:#000000;" x="305.896124" xlink:href="#mebfdf3b6cf" y="176.088228"/>
     <use style="stroke:#000000;" x="307.725753" xlink:href="#mebfdf3b6cf" y="175.437106"/>
     <use style="stroke:#000000;" x="309.555381" xlink:href="#mebfdf3b6cf" y="174.785985"/>
     <use style="stroke:#000000;" x="311.385009" xlink:href="#mebfdf3b6cf" y="174.134864"/>
     <use style="stroke:#000000;" x="313.214637" xlink:href="#mebfdf3b6cf" y="173.483743"/>
     <use style="stroke:#000000;" x="315.044265" xlink:href="#mebfdf3b6cf" y="172.832622"/>
     <use style="stroke:#000000;" x="316.873893" xlink:href="#mebfdf3b6cf" y="172.181501"/>
     <use style="stroke:#000000;" x="318.703522" xlink:href="#mebfdf3b6cf" y="171.530379"/>
     <use style="stroke:#000000;" x="320.53315" xlink:href="#mebfdf3b6cf" y="170.879258"/>
     <use style="stroke:#000000;" x="322.362778" xlink:href="#mebfdf3b6cf" y="170.228137"/>
     <use style="stroke:#000000;" x="324.192406" xlink:href="#mebfdf3b6cf" y="169.577016"/>
     <use style="stroke:#000000;" x="326.022034" xlink:href="#mebfdf3b6cf" y="168.925895"/>
     <use style="stroke:#000000;" x="327.851662" xlink:href="#mebfdf3b6cf" y="168.274773"/>
     <use style="stroke:#000000;" x="329.681291" xlink:href="#mebfdf3b6cf" y="167.623652"/>
     <use style="stroke:#000000;" x="331.510919" xlink:href="#mebfdf3b6cf" y="166.972531"/>
     <use style="stroke:#000000;" x="333.340547" xlink:href="#mebfdf3b6cf" y="166.32141"/>
     <use style="stroke:#000000;" x="335.170175" xlink:href="#mebfdf3b6cf" y="165.670289"/>
     <use style="stroke:#000000;" x="336.999803" xlink:href="#mebfdf3b6cf" y="165.019168"/>
     <use style="stroke:#000000;" x="338.829431" xlink:href="#mebfdf3b6cf" y="164.368046"/>
     <use style="stroke:#000000;" x="340.65906" xlink:href="#mebfdf3b6cf" y="163.716925"/>
     <use style="stroke:#000000;" x="342.488688" xlink:href="#mebfdf3b6cf" y="163.065804"/>
     <use style="stroke:#000000;" x="344.318316" xlink:href="#mebfdf3b6cf" y="162.414683"/>
     <use style="stroke:#000000;" x="346.147944" xlink:href="#mebfdf3b6cf" y="161.763562"/>
     <use style="stroke:#000000;" x="347.977572" xlink:href="#mebfdf3b6cf" y="161.11244"/>
     <use style="stroke:#000000;" x="349.8072" xlink:href="#mebfdf3b6cf" y="160.461319"/>
     <use style="stroke:#000000;" x="351.636829" xlink:href="#mebfdf3b6cf" y="159.810198"/>
     <use style="stroke:#000000;" x="353.466457" xlink:href="#mebfdf3b6cf" y="159.159077"/>
     <use style="stroke:#000000;" x="355.296085" xlink:href="#mebfdf3b6cf" y="158.507956"/>
     <use style="stroke:#000000;" x="357.125713" xlink:href="#mebfdf3b6cf" y="157.856835"/>
     <use style="stroke:#000000;" x="358.955341" xlink:href="#mebfdf3b6cf" y="157.205713"/>
     <use style="stroke:#000000;" x="360.78497" xlink:href="#mebfdf3b6cf" y="156.554592"/>
     <use style="stroke:#000000;" x="362.614598" xlink:href="#mebfdf3b6cf" y="155.903471"/>
     <use style="stroke:#000000;" x="364.444226" xlink:href="#mebfdf3b6cf" y="155.25235"/>
     <use style="stroke:#000000;" x="366.273854" xlink:href="#mebfdf3b6cf" y="154.601229"/>
     <use style="stroke:#000000;" x="368.103482" xlink:href="#mebfdf3b6cf" y="153.950107"/>
     <use style="stroke:#000000;" x="369.93311" xlink:href="#mebfdf3b6cf" y="153.298986"/>
     <use style="stroke:#000000;" x="371.762739" xlink:href="#mebfdf3b6cf" y="152.647865"/>
     <use style="stroke:#000000;" x="373.592367" xlink:href="#mebfdf3b6cf" y="151.996744"/>
     <use style="stroke:#000000;" x="375.421995" xlink:href="#mebfdf3b6cf" y="151.345623"/>
     <use style="stroke:#000000;" x="377.251623" xlink:href="#mebfdf3b6cf" y="150.694502"/>
     <use style="stroke:#000000;" x="379.081251" xlink:href="#mebfdf3b6cf" y="150.04338"/>
     <use style="stroke:#000000;" x="380.910879" xlink:href="#mebfdf3b6cf" y="149.392259"/>
     <use style="stroke:#000000;" x="382.740508" xlink:href="#mebfdf3b6cf" y="148.741138"/>
     <use style="stroke:#000000;" x="384.570136" xlink:href="#mebfdf3b6cf" y="148.090017"/>
     <use style="stroke:#000000;" x="386.399764" xlink:href="#mebfdf3b6cf" y="147.438896"/>
     <use style="stroke:#000000;" x="388.229392" xlink:href="#mebfdf3b6cf" y="146.787775"/>
     <use style="stroke:#000000;" x="390.05902" xlink:href="#mebfdf3b6cf" y="146.136653"/>
     <use style="stroke:#000000;" x="391.888648" xlink:href="#mebfdf3b6cf" y="145.485532"/>
     <use style="stroke:#000000;" x="393.718277" xlink:href="#mebfdf3b6cf" y="144.834411"/>
     <use style="stroke:#000000;" x="395.547905" xlink:href="#mebfdf3b6cf" y="144.18329"/>
     <use style="stroke:#000000;" x="397.377533" xlink:href="#mebfdf3b6cf" y="143.532169"/>
     <use style="stroke:#000000;" x="399.207161" xlink:href="#mebfdf3b6cf" y="142.881047"/>
     <use style="stroke:#000000;" x="401.036789" xlink:href="#mebfdf3b6cf" y="142.229926"/>
     <use style="stroke:#000000;" x="402.866417" xlink:href="#mebfdf3b6cf" y="141.578805"/>
     <use style="stroke:#000000;" x="404.696046" xlink:href="#mebfdf3b6cf" y="140.927684"/>
     <use style="stroke:#000000;" x="406.525674" xlink:href="#mebfdf3b6cf" y="140.276563"/>
     <use style="stroke:#000000;" x="408.355302" xlink:href="#mebfdf3b6cf" y="139.625442"/>
     <use style="stroke:#000000;" x="410.18493" xlink:href="#mebfdf3b6cf" y="138.97432"/>
     <use style="stroke:#000000;" x="412.014558" xlink:href="#mebfdf3b6cf" y="138.323199"/>
     <use style="stroke:#000000;" x="413.844187" xlink:href="#mebfdf3b6cf" y="137.672078"/>
     <use style="stroke:#000000;" x="415.673815" xlink:href="#mebfdf3b6cf" y="137.020957"/>
     <use style="stroke:#000000;" x="417.503443" xlink:href="#mebfdf3b6cf" y="136.369836"/>
     <use style="stroke:#000000;" x="419.333071" xlink:href="#mebfdf3b6cf" y="135.718714"/>
     <use style="stroke:#000000;" x="421.162699" xlink:href="#mebfdf3b6cf" y="135.067593"/>
     <use style="stroke:#000000;" x="422.992327" xlink:href="#mebfdf3b6cf" y="134.416472"/>
     <use style="stroke:#000000;" x="424.821956" xlink:href="#mebfdf3b6cf" y="133.765351"/>
     <use style="stroke:#000000;" x="426.651584" xlink:href="#mebfdf3b6cf" y="133.11423"/>
     <use style="stroke:#000000;" x="428.481212" xlink:href="#mebfdf3b6cf" y="132.463109"/>
     <use style="stroke:#000000;" x="430.31084" xlink:href="#mebfdf3b6cf" y="131.811987"/>
     <use style="stroke:#000000;" x="432.140468" xlink:href="#mebfdf3b6cf" y="131.160866"/>
     <use style="stroke:#000000;" x="433.970096" xlink:href="#mebfdf3b6cf" y="130.509745"/>
     <use style="stroke:#000000;" x="435.799725" xlink:href="#mebfdf3b6cf" y="129.858624"/>
     <use style="stroke:#000000;" x="437.629353" xlink:href="#mebfdf3b6cf" y="129.207503"/>
     <use style="stroke:#000000;" x="439.458981" xlink:href="#mebfdf3b6cf" y="128.556381"/>
     <use style="stroke:#000000;" x="441.288609" xlink:href="#mebfdf3b6cf" y="127.90526"/>
     <use style="stroke:#000000;" x="443.118237" xlink:href="#mebfdf3b6cf" y="127.254139"/>
     <use style="stroke:#000000;" x="444.947865" xlink:href="#mebfdf3b6cf" y="126.603018"/>
     <use style="stroke:#000000;" x="446.777494" xlink:href="#mebfdf3b6cf" y="125.951897"/>
     <use style="stroke:#000000;" x="448.607122" xlink:href="#mebfdf3b6cf" y="125.300776"/>
     <use style="stroke:#000000;" x="450.43675" xlink:href="#mebfdf3b6cf" y="124.649654"/>
     <use style="stroke:#000000;" x="452.266378" xlink:href="#mebfdf3b6cf" y="123.998533"/>
     <use style="stroke:#000000;" x="454.096006" xlink:href="#mebfdf3b6cf" y="123.347412"/>
     <use style="stroke:#000000;" x="455.925634" xlink:href="#mebfdf3b6cf" y="122.696291"/>
     <use style="stroke:#000000;" x="457.755263" xlink:href="#mebfdf3b6cf" y="122.04517"/>
     <use style="stroke:#000000;" x="459.584891" xlink:href="#mebfdf3b6cf" y="121.394049"/>
     <use style="stroke:#000000;" x="461.414519" xlink:href="#mebfdf3b6cf" y="120.742927"/>
     <use style="stroke:#000000;" x="463.244147" xlink:href="#mebfdf3b6cf" y="120.091806"/>
     <use style="stroke:#000000;" x="465.073775" xlink:href="#mebfdf3b6cf" y="119.440685"/>
     <use style="stroke:#000000;" x="466.903404" xlink:href="#mebfdf3b6cf" y="118.789564"/>
     <use style="stroke:#000000;" x="468.733032" xlink:href="#mebfdf3b6cf" y="118.138443"/>
     <use style="stroke:#000000;" x="470.56266" xlink:href="#mebfdf3b6cf" y="117.487321"/>
     <use style="stroke:#000000;" x="472.392288" xlink:href="#mebfdf3b6cf" y="116.8362"/>
     <use style="stroke:#000000;" x="474.221916" xlink:href="#mebfdf3b6cf" y="116.185079"/>
     <use style="stroke:#000000;" x="476.051544" xlink:href="#mebfdf3b6cf" y="115.533958"/>
     <use style="stroke:#000000;" x="477.881173" xlink:href="#mebfdf3b6cf" y="114.882837"/>
     <use style="stroke:#000000;" x="479.710801" xlink:href="#mebfdf3b6cf" y="114.231716"/>
     <use style="stroke:#000000;" x="481.540429" xlink:href="#mebfdf3b6cf" y="113.580594"/>
     <use style="stroke:#000000;" x="483.370057" xlink:href="#mebfdf3b6cf" y="112.929473"/>
     <use style="stroke:#000000;" x="485.199685" xlink:href="#mebfdf3b6cf" y="112.278352"/>
     <use style="stroke:#000000;" x="487.029313" xlink:href="#mebfdf3b6cf" y="111.627231"/>
     <use style="stroke:#000000;" x="488.858942" xlink:href="#mebfdf3b6cf" y="110.97611"/>
     <use style="stroke:#000000;" x="490.68857" xlink:href="#mebfdf3b6cf" y="110.324988"/>
     <use style="stroke:#000000;" x="492.518198" xlink:href="#mebfdf3b6cf" y="109.673867"/>
     <use style="stroke:#000000;" x="494.347826" xlink:href="#mebfdf3b6cf" y="109.022746"/>
     <use style="stroke:#000000;" x="496.177454" xlink:href="#mebfdf3b6cf" y="108.371625"/>
     <use style="stroke:#000000;" x="498.007082" xlink:href="#mebfdf3b6cf" y="107.720504"/>
     <use style="stroke:#000000;" x="499.836711" xlink:href="#mebfdf3b6cf" y="107.069383"/>
     <use style="stroke:#000000;" x="501.666339" xlink:href="#mebfdf3b6cf" y="106.418261"/>
     <use style="stroke:#000000;" x="503.495967" xlink:href="#mebfdf3b6cf" y="105.76714"/>
     <use style="stroke:#000000;" x="505.325595" xlink:href="#mebfdf3b6cf" y="105.116019"/>
     <use style="stroke:#000000;" x="507.155223" xlink:href="#mebfdf3b6cf" y="104.464898"/>
     <use style="stroke:#000000;" x="508.984851" xlink:href="#mebfdf3b6cf" y="103.813777"/>
     <use style="stroke:#000000;" x="510.81448" xlink:href="#mebfdf3b6cf" y="103.162655"/>
     <use style="stroke:#000000;" x="512.644108" xlink:href="#mebfdf3b6cf" y="102.511534"/>
     <use style="stroke:#000000;" x="514.473736" xlink:href="#mebfdf3b6cf" y="101.860413"/>
     <use style="stroke:#000000;" x="516.303364" xlink:href="#mebfdf3b6cf" y="101.209292"/>
     <use style="stroke:#000000;" x="518.132992" xlink:href="#mebfdf3b6cf" y="100.558171"/>
     <use style="stroke:#000000;" x="519.96262" xlink:href="#mebfdf3b6cf" y="99.90705"/>
     <use style="stroke:#000000;" x="521.792249" xlink:href="#mebfdf3b6cf" y="99.255928"/>
     <use style="stroke:#000000;" x="523.621877" xlink:href="#mebfdf3b6cf" y="98.604807"/>
     <use style="stroke:#000000;" x="525.451505" xlink:href="#mebfdf3b6cf" y="97.953686"/>
     <use style="stroke:#000000;" x="527.281133" xlink:href="#mebfdf3b6cf" y="97.302565"/>
     <use style="stroke:#000000;" x="529.110761" xlink:href="#mebfdf3b6cf" y="96.651444"/>
     <use style="stroke:#000000;" x="530.94039" xlink:href="#mebfdf3b6cf" y="96.000323"/>
     <use style="stroke:#000000;" x="532.770018" xlink:href="#mebfdf3b6cf" y="95.349201"/>
     <use style="stroke:#000000;" x="534.599646" xlink:href="#mebfdf3b6cf" y="94.69808"/>
     <use style="stroke:#000000;" x="536.429274" xlink:href="#mebfdf3b6cf" y="94.046959"/>
     <use style="stroke:#000000;" x="538.258902" xlink:href="#mebfdf3b6cf" y="93.395838"/>
     <use style="stroke:#000000;" x="540.08853" xlink:href="#mebfdf3b6cf" y="92.744717"/>
     <use style="stroke:#000000;" x="541.918159" xlink:href="#mebfdf3b6cf" y="92.093595"/>
     <use style="stroke:#000000;" x="543.747787" xlink:href="#mebfdf3b6cf" y="91.442474"/>
     <use style="stroke:#000000;" x="545.577415" xlink:href="#mebfdf3b6cf" y="90.791353"/>
     <use style="stroke:#000000;" x="547.407043" xlink:href="#mebfdf3b6cf" y="90.140232"/>
     <use style="stroke:#000000;" x="549.236671" xlink:href="#mebfdf3b6cf" y="89.489111"/>
     <use style="stroke:#000000;" x="551.066299" xlink:href="#mebfdf3b6cf" y="88.83799"/>
     <use style="stroke:#000000;" x="552.895928" xlink:href="#mebfdf3b6cf" y="88.186868"/>
     <use style="stroke:#000000;" x="554.725556" xlink:href="#mebfdf3b6cf" y="87.535747"/>
     <use style="stroke:#000000;" x="556.555184" xlink:href="#mebfdf3b6cf" y="86.884626"/>
     <use style="stroke:#000000;" x="558.384812" xlink:href="#mebfdf3b6cf" y="86.233505"/>
     <use style="stroke:#000000;" x="560.21444" xlink:href="#mebfdf3b6cf" y="85.582384"/>
     <use style="stroke:#000000;" x="562.044068" xlink:href="#mebfdf3b6cf" y="84.931262"/>
     <use style="stroke:#000000;" x="563.873697" xlink:href="#mebfdf3b6cf" y="84.280141"/>
     <use style="stroke:#000000;" x="565.703325" xlink:href="#mebfdf3b6cf" y="83.62902"/>
     <use style="stroke:#000000;" x="567.532953" xlink:href="#mebfdf3b6cf" y="82.977899"/>
     <use style="stroke:#000000;" x="569.362581" xlink:href="#mebfdf3b6cf" y="82.326778"/>
     <use style="stroke:#000000;" x="571.192209" xlink:href="#mebfdf3b6cf" y="81.675657"/>
     <use style="stroke:#000000;" x="573.021837" xlink:href="#mebfdf3b6cf" y="81.024535"/>
     <use style="stroke:#000000;" x="574.851466" xlink:href="#mebfdf3b6cf" y="80.373414"/>
     <use style="stroke:#000000;" x="576.681094" xlink:href="#mebfdf3b6cf" y="79.722293"/>
     <use style="stroke:#000000;" x="578.510722" xlink:href="#mebfdf3b6cf" y="79.071172"/>
     <use style="stroke:#000000;" x="580.34035" xlink:href="#mebfdf3b6cf" y="78.420051"/>
     <use style="stroke:#000000;" x="582.169978" xlink:href="#mebfdf3b6cf" y="77.76893"/>
     <use style="stroke:#000000;" x="583.999607" xlink:href="#mebfdf3b6cf" y="77.117808"/>
     <use style="stroke:#000000;" x="585.829235" xlink:href="#mebfdf3b6cf" y="76.466687"/>
     <use style="stroke:#000000;" x="587.658863" xlink:href="#mebfdf3b6cf" y="75.815566"/>
     <use style="stroke:#000000;" x="589.488491" xlink:href="#mebfdf3b6cf" y="75.164445"/>
     <use style="stroke:#000000;" x="591.318119" xlink:href="#mebfdf3b6cf" y="74.513324"/>
     <use style="stroke:#000000;" x="593.147747" xlink:href="#mebfdf3b6cf" y="73.862202"/>
     <use style="stroke:#000000;" x="594.977376" xlink:href="#mebfdf3b6cf" y="73.211081"/>
     <use style="stroke:#000000;" x="596.807004" xlink:href="#mebfdf3b6cf" y="72.55996"/>
     <use style="stroke:#000000;" x="598.636632" xlink:href="#mebfdf3b6cf" y="71.908839"/>
     <use style="stroke:#000000;" x="600.46626" xlink:href="#mebfdf3b6cf" y="71.257718"/>
     <use style="stroke:#000000;" x="602.295888" xlink:href="#mebfdf3b6cf" y="70.606597"/>
     <use style="stroke:#000000;" x="604.125516" xlink:href="#mebfdf3b6cf" y="69.955475"/>
     <use style="stroke:#000000;" x="605.955145" xlink:href="#mebfdf3b6cf" y="69.304354"/>
     <use style="stroke:#000000;" x="607.784773" xlink:href="#mebfdf3b6cf" y="68.653233"/>
     <use style="stroke:#000000;" x="609.614401" xlink:href="#mebfdf3b6cf" y="68.002112"/>
     <use style="stroke:#000000;" x="611.444029" xlink:href="#mebfdf3b6cf" y="67.350991"/>
     <use style="stroke:#000000;" x="613.273657" xlink:href="#mebfdf3b6cf" y="66.699869"/>
     <use style="stroke:#000000;" x="615.103285" xlink:href="#mebfdf3b6cf" y="66.048748"/>
     <use style="stroke:#000000;" x="616.932914" xlink:href="#mebfdf3b6cf" y="65.397627"/>
     <use style="stroke:#000000;" x="618.762542" xlink:href="#mebfdf3b6cf" y="64.746506"/>
     <use style="stroke:#000000;" x="620.59217" xlink:href="#mebfdf3b6cf" y="64.095385"/>
     <use style="stroke:#000000;" x="622.421798" xlink:href="#mebfdf3b6cf" y="63.444264"/>
     <use style="stroke:#000000;" x="624.251426" xlink:href="#mebfdf3b6cf" y="62.793142"/>
     <use style="stroke:#000000;" x="626.081054" xlink:href="#mebfdf3b6cf" y="62.142021"/>
     <use style="stroke:#000000;" x="627.910683" xlink:href="#mebfdf3b6cf" y="61.4909"/>
     <use style="stroke:#000000;" x="629.740311" xlink:href="#mebfdf3b6cf" y="60.839779"/>
     <use style="stroke:#000000;" x="631.569939" xlink:href="#mebfdf3b6cf" y="60.188658"/>
     <use style="stroke:#000000;" x="633.399567" xlink:href="#mebfdf3b6cf" y="59.537536"/>
     <use style="stroke:#000000;" x="635.229195" xlink:href="#mebfdf3b6cf" y="58.886415"/>
     <use style="stroke:#000000;" x="637.058824" xlink:href="#mebfdf3b6cf" y="58.235294"/>
    </g>
   </g>
   <g id="matplotlib.axis_1">
    <g id="xtick_1">
     <g id="line2d_1">
      <path clip-path="url(#pb3dd19ab82)" d="M 90 378 
L 90 51.84 
" style="fill:none;stroke:#b0b0b0;stroke-linecap:square;stroke-width:0.8;"/>
     </g>
     <g id="line2d_2">
      <defs>
       <path d="M 0 0 
L 0 3.5 
" id="mfbcc5b84a1" style="stroke:#000000;stroke-width:0.8;"/>
      </defs>
      <g>
       <use style="stroke:#000000;stroke-width:0.8;" x="90" xlink:href="#mfbcc5b84a1" y="378"/>
      </g>
     </g>
     <g id="text_1">
      <!-- 0.00 -->
      <defs>
       <path d="M 31.78125 66.40625 
Q 24.171875 66.40625 20.328125 58.90625 
Q 16.5 51.421875 16.5 36.375 
Q 16.5 21.390625 20.328125 13.890625 
Q 24.171875 6.390625 31.78125 6.390625 
Q 39.453125 6.390625 43.28125 13.890625 
Q 47.125 21.390625 47.125 36.375 
Q 47.125 51.421875 43.28125 58.90625 
Q 39.453125 66.40625 31.78125 66.40625 
z
M 31.78125 74.21875 
Q 44.046875 74.21875 50.515625 64.515625 
Q 56.984375 54.828125 56.984375 36.375 
Q 56.984375 17.96875 50.515625 8.265625 
Q 44.046875 -1.421875 31.78125 -1.421875 
Q 19.53125 -1.421875 13.0625 8.265625 
Q 6.59375 17.96875 6.59375 36.375 
Q 6.59375 54.828125 13.0625 64.515625 
Q 19.53125 74.21875 31.78125 74.21875 
z
" id="DejaVuSans-30"/>
       <path d="M 10.6875 12.40625 
L 21 12.40625 
L 21 0 
L 10.6875 0 
z
" id="DejaVuSans-2e"/>
      </defs>
      <g transform="translate(73.002422 396.601294)scale(0.15268 -0.15268)">
       <use xlink:href="#DejaVuSans-30"/>
       <use x="63.623047" xlink:href="#DejaVuSans-2e"/>
       <use x="95.410156" xlink:href="#DejaVuSans-30"/>
       <use x="159.033203" xlink:href="#DejaVuSans-30"/>
      </g>
     </g>
    </g>
    <g id="xtick_2">
     <g id="line2d_3">
      <path clip-path="url(#pb3dd19ab82)" d="M 201.6 378 
L 201.6 51.84 
" style="fill:none;stroke:#b0b0b0;stroke-linecap:square;stroke-width:0.8;"/>
     </g>
     <g id="line2d_4">
      <g>
       <use style="stroke:#000000;stroke-width:0.8;" x="201.6" xlink:href="#mfbcc5b84a1" y="378"/>
      </g>
     </g>
     <g id="text_2">
      <!-- 3.05 -->
      <defs>
       <path d="M 40.578125 39.3125 
Q 47.65625 37.796875 51.625 33 
Q 55.609375 28.21875 55.609375 21.1875 
Q 55.609375 10.40625 48.1875 4.484375 
Q 40.765625 -1.421875 27.09375 -1.421875 
Q 22.515625 -1.421875 17.65625 -0.515625 
Q 12.796875 0.390625 7.625 2.203125 
L 7.625 11.71875 
Q 11.71875 9.328125 16.59375 8.109375 
Q 21.484375 6.890625 26.8125 6.890625 
Q 36.078125 6.890625 40.9375 10.546875 
Q 45.796875 14.203125 45.796875 21.1875 
Q 45.796875 27.640625 41.28125 31.265625 
Q 36.765625 34.90625 28.71875 34.90625 
L 20.21875 34.90625 
L 20.21875 43.015625 
L 29.109375 43.015625 
Q 36.375 43.015625 40.234375 45.921875 
Q 44.09375 48.828125 44.09375 54.296875 
Q 44.09375 59.90625 40.109375 62.90625 
Q 36.140625 65.921875 28.71875 65.921875 
Q 24.65625 65.921875 20.015625 65.03125 
Q 15.375 64.15625 9.8125 62.3125 
L 9.8125 71.09375 
Q 15.4375 72.65625 20.34375 73.4375 
Q 25.25 74.21875 29.59375 74.21875 
Q 40.828125 74.21875 47.359375 69.109375 
Q 53.90625 64.015625 53.90625 55.328125 
Q 53.90625 49.265625 50.4375 45.09375 
Q 46.96875 40.921875 40.578125 39.3125 
z
" id="DejaVuSans-33"/>
       <path d="M 10.796875 72.90625 
L 49.515625 72.90625 
L 49.515625 64.59375 
L 19.828125 64.59375 
L 19.828125 46.734375 
Q 21.96875 47.46875 24.109375 47.828125 
Q 26.265625 48.1875 28.421875 48.1875 
Q 40.625 48.1875 47.75 41.5 
Q 54.890625 34.8125 54.890625 23.390625 
Q 54.890625 11.625 47.5625 5.09375 
Q 40.234375 -1.421875 26.90625 -1.421875 
Q 22.3125 -1.421875 17.546875 -0.640625 
Q 12.796875 0.140625 7.71875 1.703125 
L 7.71875 11.625 
Q 12.109375 9.234375 16.796875 8.0625 
Q 21.484375 6.890625 26.703125 6.890625 
Q 35.15625 6.890625 40.078125 11.328125 
Q 45.015625 15.765625 45.015625 23.390625 
Q 45.015625 31 40.078125 35.4375 
Q 35.15625 39.890625 26.703125 39.890625 
Q 22.75 39.890625 18.8125 39.015625 
Q 14.890625 38.140625 10.796875 36.28125 
z
" id="DejaVuSans-35"/>
      </defs>
      <g transform="translate(184.602422 396.601294)scale(0.15268 -0.15268)">
       <use xlink:href="#DejaVuSans-33"/>
       <use x="63.623047" xlink:href="#DejaVuSans-2e"/>
       <use x="95.410156" xlink:href="#DejaVuSans-30"/>
       <use x="159.033203" xlink:href="#DejaVuSans-35"/>
      </g>
     </g>
    </g>
    <g id="xtick_3">
     <g id="line2d_5">
      <path clip-path="url(#pb3dd19ab82)" d="M 313.2 378 
L 313.2 51.84 
" style="fill:none;stroke:#b0b0b0;stroke-linecap:square;stroke-width:0.8;"/>
     </g>
     <g id="line2d_6">
      <g>
       <use style="stroke:#000000;stroke-width:0.8;" x="313.2" xlink:href="#mfbcc5b84a1" y="378"/>
      </g>
     </g>
     <g id="text_3">
      <!-- 6.10 -->
      <defs>
       <path d="M 33.015625 40.375 
Q 26.375 40.375 22.484375 35.828125 
Q 18.609375 31.296875 18.609375 23.390625 
Q 18.609375 15.53125 22.484375 10.953125 
Q 26.375 6.390625 33.015625 6.390625 
Q 39.65625 6.390625 43.53125 10.953125 
Q 47.40625 15.53125 47.40625 23.390625 
Q 47.40625 31.296875 43.53125 35.828125 
Q 39.65625 40.375 33.015625 40.375 
z
M 52.59375 71.296875 
L 52.59375 62.3125 
Q 48.875 64.0625 45.09375 64.984375 
Q 41.3125 65.921875 37.59375 65.921875 
Q 27.828125 65.921875 22.671875 59.328125 
Q 17.53125 52.734375 16.796875 39.40625 
Q 19.671875 43.65625 24.015625 45.921875 
Q 28.375 48.1875 33.59375 48.1875 
Q 44.578125 48.1875 50.953125 41.515625 
Q 57.328125 34.859375 57.328125 23.390625 
Q 57.328125 12.15625 50.6875 5.359375 
Q 44.046875 -1.421875 33.015625 -1.421875 
Q 20.359375 -1.421875 13.671875 8.265625 
Q 6.984375 17.96875 6.984375 36.375 
Q 6.984375 53.65625 15.1875 63.9375 
Q 23.390625 74.21875 37.203125 74.21875 
Q 40.921875 74.21875 44.703125 73.484375 
Q 48.484375 72.75 52.59375 71.296875 
z
" id="DejaVuSans-36"/>
       <path d="M 12.40625 8.296875 
L 28.515625 8.296875 
L 28.515625 63.921875 
L 10.984375 60.40625 
L 10.984375 69.390625 
L 28.421875 72.90625 
L 38.28125 72.90625 
L 38.28125 8.296875 
L 54.390625 8.296875 
L 54.390625 0 
L 12.40625 0 
z
" id="DejaVuSans-31"/>
      </defs>
      <g transform="translate(296.202422 396.601294)scale(0.15268 -0.15268)">
       <use xlink:href="#DejaVuSans-36"/>
       <use x="63.623047" xlink:href="#DejaVuSans-2e"/>
       <use x="95.410156" xlink:href="#DejaVuSans-31"/>
       <use x="159.033203" xlink:href="#DejaVuSans-30"/>
      </g>
     </g>
    </g>
    <g id="xtick_4">
     <g id="line2d_7">
      <path clip-path="url(#pb3dd19ab82)" d="M 424.8 378 
L 424.8 51.84 
" style="fill:none;stroke:#b0b0b0;stroke-linecap:square;stroke-width:0.8;"/>
     </g>
     <g id="line2d_8">
      <g>
       <use style="stroke:#000000;stroke-width:0.8;" x="424.8" xlink:href="#mfbcc5b84a1" y="378"/>
      </g>
     </g>
     <g id="text_4">
      <!-- 9.15 -->
      <defs>
       <path d="M 10.984375 1.515625 
L 10.984375 10.5 
Q 14.703125 8.734375 18.5 7.8125 
Q 22.3125 6.890625 25.984375 6.890625 
Q 35.75 6.890625 40.890625 13.453125 
Q 46.046875 20.015625 46.78125 33.40625 
Q 43.953125 29.203125 39.59375 26.953125 
Q 35.25 24.703125 29.984375 24.703125 
Q 19.046875 24.703125 12.671875 31.3125 
Q 6.296875 37.9375 6.296875 49.421875 
Q 6.296875 60.640625 12.9375 67.421875 
Q 19.578125 74.21875 30.609375 74.21875 
Q 43.265625 74.21875 49.921875 64.515625 
Q 56.59375 54.828125 56.59375 36.375 
Q 56.59375 19.140625 48.40625 8.859375 
Q 40.234375 -1.421875 26.421875 -1.421875 
Q 22.703125 -1.421875 18.890625 -0.6875 
Q 15.09375 0.046875 10.984375 1.515625 
z
M 30.609375 32.421875 
Q 37.25 32.421875 41.125 36.953125 
Q 45.015625 41.5 45.015625 49.421875 
Q 45.015625 57.28125 41.125 61.84375 
Q 37.25 66.40625 30.609375 66.40625 
Q 23.96875 66.40625 20.09375 61.84375 
Q 16.21875 57.28125 16.21875 49.421875 
Q 16.21875 41.5 20.09375 36.953125 
Q 23.96875 32.421875 30.609375 32.421875 
z
" id="DejaVuSans-39"/>
      </defs>
      <g transform="translate(407.802422 396.601294)scale(0.15268 -0.15268)">
       <use xlink:href="#DejaVuSans-39"/>
       <use x="63.623047" xlink:href="#DejaVuSans-2e"/>
       <use x="95.410156" xlink:href="#DejaVuSans-31"/>
       <use x="159.033203" xlink:href="#DejaVuSans-35"/>
      </g>
     </g>
    </g>
    <g id="xtick_5">
     <g id="line2d_9">
      <path clip-path="url(#pb3dd19ab82)" d="M 536.4 378 
L 536.4 51.84 
" style="fill:none;stroke:#b0b0b0;stroke-linecap:square;stroke-width:0.8;"/>
     </g>
     <g id="line2d_10">
      <g>
       <use style="stroke:#000000;stroke-width:0.8;" x="536.4" xlink:href="#mfbcc5b84a1" y="378"/>
      </g>
     </g>
     <g id="text_5">
      <!-- 12.20 -->
      <defs>
       <path d="M 19.1875 8.296875 
L 53.609375 8.296875 
L 53.609375 0 
L 7.328125 0 
L 7.328125 8.296875 
Q 12.9375 14.109375 22.625 23.890625 
Q 32.328125 33.6875 34.8125 36.53125 
Q 39.546875 41.84375 41.421875 45.53125 
Q 43.3125 49.21875 43.3125 52.78125 
Q 43.3125 58.59375 39.234375 62.25 
Q 35.15625 65.921875 28.609375 65.921875 
Q 23.96875 65.921875 18.8125 64.3125 
Q 13.671875 62.703125 7.8125 59.421875 
L 7.8125 69.390625 
Q 13.765625 71.78125 18.9375 73 
Q 24.125 74.21875 28.421875 74.21875 
Q 39.75 74.21875 46.484375 68.546875 
Q 53.21875 62.890625 53.21875 53.421875 
Q 53.21875 48.921875 51.53125 44.890625 
Q 49.859375 40.875 45.40625 35.40625 
Q 44.1875 33.984375 37.640625 27.21875 
Q 31.109375 20.453125 19.1875 8.296875 
z
" id="DejaVuSans-32"/>
      </defs>
      <g transform="translate(514.545289 396.601294)scale(0.15268 -0.15268)">
       <use xlink:href="#DejaVuSans-31"/>
       <use x="63.623047" xlink:href="#DejaVuSans-32"/>
       <use x="127.246094" xlink:href="#DejaVuSans-2e"/>
       <use x="159.033203" xlink:href="#DejaVuSans-32"/>
       <use x="222.65625" xlink:href="#DejaVuSans-30"/>
      </g>
     </g>
    </g>
    <g id="xtick_6">
     <g id="line2d_11">
      <path clip-path="url(#pb3dd19ab82)" d="M 648 378 
L 648 51.84 
" style="fill:none;stroke:#b0b0b0;stroke-linecap:square;stroke-width:0.8;"/>
     </g>
     <g id="line2d_12">
      <g>
       <use style="stroke:#000000;stroke-width:0.8;" x="648" xlink:href="#mfbcc5b84a1" y="378"/>
      </g>
     </g>
     <g id="text_6">
      <!-- 15.25 -->
      <g transform="translate(626.145289 396.601294)scale(0.15268 -0.15268)">
       <use xlink:href="#DejaVuSans-31"/>
       <use x="63.623047" xlink:href="#DejaVuSans-35"/>
       <use x="127.246094" xlink:href="#DejaVuSans-2e"/>
       <use x="159.033203" xlink:href="#DejaVuSans-32"/>
       <use x="222.65625" xlink:href="#DejaVuSans-35"/>
      </g>
     </g>
    </g>
    <g id="xtick_7">
     <g id="line2d_13">
      <defs>
       <path d="M 0 0 
L 0 2 
" id="m730a4baa38" style="stroke:#000000;stroke-width:0.6;"/>
      </defs>
      <g>
       <use style="stroke:#000000;stroke-width:0.6;" x="90" xlink:href="#m730a4baa38" y="378"/>
      </g>
     </g>
    </g>
    <g id="xtick_8">
     <g id="line2d_14">
      <g>
       <use style="stroke:#000000;stroke-width:0.6;" x="145.8" xlink:href="#m730a4baa38" y="378"/>
      </g>
     </g>
    </g>
    <g id="xtick_9">
     <g id="line2d_15">
      <g>
       <use style="stroke:#000000;stroke-width:0.6;" x="201.6" xlink:href="#m730a4baa38" y="378"/>
      </g>
     </g>
    </g>
    <g id="xtick_10">
     <g id="line2d_16">
      <g>
       <use style="stroke:#000000;stroke-width:0.6;" x="257.4" xlink:href="#m730a4baa38" y="378"/>
      </g>
     </g>
    </g>
    <g id="xtick_11">
     <g id="line2d_17">
      <g>
       <use style="stroke:#000000;stroke-width:0.6;" x="313.2" xlink:href="#m730a4baa38" y="378"/>
      </g>
     </g>
    </g>
    <g id="xtick_12">
     <g id="line2d_18">
      <g>
       <use style="stroke:#000000;stroke-width:0.6;" x="369" xlink:href="#m730a4baa38" y="378"/>
      </g>
     </g>
    </g>
    <g id="xtick_13">
     <g id="line2d_19">
      <g>
       <use style="stroke:#000000;stroke-width:0.6;" x="424.8" xlink:href="#m730a4baa38" y="378"/>
      </g>
     </g>
    </g>
    <g id="xtick_14">
     <g id="line2d_20">
      <g>
       <use style="stroke:#000000;stroke-width:0.6;" x="480.6" xlink:href="#m730a4baa38" y="378"/>
      </g>
     </g>
    </g>
    <g id="xtick_15">
     <g id="line2d_21">
      <g>
       <use style="stroke:#000000;stroke-width:0.6;" x="536.4" xlink:href="#m730a4baa38" y="378"/>
      </g>
     </g>
    </g>
    <g id="xtick_16">
     <g id="line2d_22">
      <g>
       <use style="stroke:#000000;stroke-width:0.6;" x="592.2" xlink:href="#m730a4baa38" y="378"/>
      </g>
     </g>
    </g>
    <g id="xtick_17">
     <g id="line2d_23">
      <g>
       <use style="stroke:#000000;stroke-width:0.6;" x="648" xlink:href="#m730a4baa38" y="378"/>
      </g>
     </g>
    </g>
    <g id="text_7">
     <!-- time [s] -->
     <defs>
      <path d="M 18.3125 70.21875 
L 18.3125 54.6875 
L 36.8125 54.6875 
L 36.8125 47.703125 
L 18.3125 47.703125 
L 18.3125 18.015625 
Q 18.3125 11.328125 20.140625 9.421875 
Q 21.96875 7.515625 27.59375 7.515625 
L 36.8125 7.515625 
L 36.8125 0 
L 27.59375 0 
Q 17.1875 0 13.234375 3.875 
Q 9.28125 7.765625 9.28125 18.015625 
L 9.28125 47.703125 
L 2.6875 47.703125 
L 2.6875 54.6875 
L 9.28125 54.6875 
L 9.28125 70.21875 
z
" id="DejaVuSans-74"/>
      <path d="M 9.421875 54.6875 
L 18.40625 54.6875 
L 18.40625 0 
L 9.421875 0 
z
M 9.421875 75.984375 
L 18.40625 75.984375 
L 18.40625 64.59375 
L 9.421875 64.59375 
z
" id="DejaVuSans-69"/>
      <path d="M 52 44.1875 
Q 55.375 50.25 60.0625 53.125 
Q 64.75 56 71.09375 56 
Q 79.640625 56 84.28125 50.015625 
Q 88.921875 44.046875 88.921875 33.015625 
L 88.921875 0 
L 79.890625 0 
L 79.890625 32.71875 
Q 79.890625 40.578125 77.09375 44.375 
Q 74.3125 48.1875 68.609375 48.1875 
Q 61.625 48.1875 57.5625 43.546875 
Q 53.515625 38.921875 53.515625 30.90625 
L 53.515625 0 
L 44.484375 0 
L 44.484375 32.71875 
Q 44.484375 40.625 41.703125 44.40625 
Q 38.921875 48.1875 33.109375 48.1875 
Q 26.21875 48.1875 22.15625 43.53125 
Q 18.109375 38.875 18.109375 30.90625 
L 18.109375 0 
L 9.078125 0 
L 9.078125 54.6875 
L 18.109375 54.6875 
L 18.109375 46.1875 
Q 21.1875 51.21875 25.484375 53.609375 
Q 29.78125 56 35.6875 56 
Q 41.65625 56 45.828125 52.96875 
Q 50 49.953125 52 44.1875 
z
" id="DejaVuSans-6d"/>
      <path d="M 56.203125 29.59375 
L 56.203125 25.203125 
L 14.890625 25.203125 
Q 15.484375 15.921875 20.484375 11.0625 
Q 25.484375 6.203125 34.421875 6.203125 
Q 39.59375 6.203125 44.453125 7.46875 
Q 49.3125 8.734375 54.109375 11.28125 
L 54.109375 2.78125 
Q 49.265625 0.734375 44.1875 -0.34375 
Q 39.109375 -1.421875 33.890625 -1.421875 
Q 20.796875 -1.421875 13.15625 6.1875 
Q 5.515625 13.8125 5.515625 26.8125 
Q 5.515625 40.234375 12.765625 48.109375 
Q 20.015625 56 32.328125 56 
Q 43.359375 56 49.78125 48.890625 
Q 56.203125 41.796875 56.203125 29.59375 
z
M 47.21875 32.234375 
Q 47.125 39.59375 43.09375 43.984375 
Q 39.0625 48.390625 32.421875 48.390625 
Q 24.90625 48.390625 20.390625 44.140625 
Q 15.875 39.890625 15.1875 32.171875 
z
" id="DejaVuSans-65"/>
      <path id="DejaVuSans-20"/>
      <path d="M 8.59375 75.984375 
L 29.296875 75.984375 
L 29.296875 69 
L 17.578125 69 
L 17.578125 -6.203125 
L 29.296875 -6.203125 
L 29.296875 -13.1875 
L 8.59375 -13.1875 
z
" id="DejaVuSans-5b"/>
      <path d="M 44.28125 53.078125 
L 44.28125 44.578125 
Q 40.484375 46.53125 36.375 47.5 
Q 32.28125 48.484375 27.875 48.484375 
Q 21.1875 48.484375 17.84375 46.4375 
Q 14.5 44.390625 14.5 40.28125 
Q 14.5 37.15625 16.890625 35.375 
Q 19.28125 33.59375 26.515625 31.984375 
L 29.59375 31.296875 
Q 39.15625 29.25 43.1875 25.515625 
Q 47.21875 21.78125 47.21875 15.09375 
Q 47.21875 7.46875 41.1875 3.015625 
Q 35.15625 -1.421875 24.609375 -1.421875 
Q 20.21875 -1.421875 15.453125 -0.5625 
Q 10.6875 0.296875 5.421875 2 
L 5.421875 11.28125 
Q 10.40625 8.6875 15.234375 7.390625 
Q 20.0625 6.109375 24.8125 6.109375 
Q 31.15625 6.109375 34.5625 8.28125 
Q 37.984375 10.453125 37.984375 14.40625 
Q 37.984375 18.0625 35.515625 20.015625 
Q 33.0625 21.96875 24.703125 23.78125 
L 21.578125 24.515625 
Q 13.234375 26.265625 9.515625 29.90625 
Q 5.8125 33.546875 5.8125 39.890625 
Q 5.8125 47.609375 11.28125 51.796875 
Q 16.75 56 26.8125 56 
Q 31.78125 56 36.171875 55.265625 
Q 40.578125 54.546875 44.28125 53.078125 
z
" id="DejaVuSans-73"/>
      <path d="M 30.421875 75.984375 
L 30.421875 -13.1875 
L 9.71875 -13.1875 
L 9.71875 -6.203125 
L 21.390625 -6.203125 
L 21.390625 69 
L 9.71875 69 
L 9.71875 75.984375 
z
" id="DejaVuSans-5d"/>
     </defs>
     <g transform="translate(333.463309 417.701458)scale(0.18326 -0.18326)">
      <use xlink:href="#DejaVuSans-74"/>
      <use x="39.208984" xlink:href="#DejaVuSans-69"/>
      <use x="66.992188" xlink:href="#DejaVuSans-6d"/>
      <use x="164.404297" xlink:href="#DejaVuSans-65"/>
      <use x="225.927734" xlink:href="#DejaVuSans-20"/>
      <use x="257.714844" xlink:href="#DejaVuSans-5b"/>
      <use x="296.728516" xlink:href="#DejaVuSans-73"/>
      <use x="348.828125" xlink:href="#DejaVuSans-5d"/>
     </g>
    </g>
   </g>
   <g id="matplotlib.axis_2">
    <g id="ytick_1">
     <g id="line2d_24">
      <path clip-path="url(#pb3dd19ab82)" d="M 90 378 
L 648 378 
" style="fill:none;stroke:#b0b0b0;stroke-linecap:square;stroke-width:0.8;"/>
     </g>
     <g id="line2d_25">
      <defs>
       <path d="M 0 0 
L -3.5 0 
" id="m8c04ac7fdd" style="stroke:#000000;stroke-width:0.8;"/>
      </defs>
      <g>
       <use style="stroke:#000000;stroke-width:0.8;" x="90" xlink:href="#m8c04ac7fdd" y="378"/>
      </g>
     </g>
     <g id="text_8">
      <!-- 0.00 -->
      <g transform="translate(49.004844 383.800647)scale(0.15268 -0.15268)">
       <use xlink:href="#DejaVuSans-30"/>
       <use x="63.623047" xlink:href="#DejaVuSans-2e"/>
       <use x="95.410156" xlink:href="#DejaVuSans-30"/>
       <use x="159.033203" xlink:href="#DejaVuSans-30"/>
      </g>
     </g>
    </g>
    <g id="ytick_2">
     <g id="line2d_26">
      <path clip-path="url(#pb3dd19ab82)" d="M 90 312.768 
L 648 312.768 
" style="fill:none;stroke:#b0b0b0;stroke-linecap:square;stroke-width:0.8;"/>
     </g>
     <g id="line2d_27">
      <g>
       <use style="stroke:#000000;stroke-width:0.8;" x="90" xlink:href="#m8c04ac7fdd" y="312.768"/>
      </g>
     </g>
     <g id="text_9">
      <!-- 0.05 -->
      <g transform="translate(49.004844 318.568647)scale(0.15268 -0.15268)">
       <use xlink:href="#DejaVuSans-30"/>
       <use x="63.623047" xlink:href="#DejaVuSans-2e"/>
       <use x="95.410156" xlink:href="#DejaVuSans-30"/>
       <use x="159.033203" xlink:href="#DejaVuSans-35"/>
      </g>
     </g>
    </g>
    <g id="ytick_3">
     <g id="line2d_28">
      <path clip-path="url(#pb3dd19ab82)" d="M 90 247.536 
L 648 247.536 
" style="fill:none;stroke:#b0b0b0;stroke-linecap:square;stroke-width:0.8;"/>
     </g>
     <g id="line2d_29">
      <g>
       <use style="stroke:#000000;stroke-width:0.8;" x="90" xlink:href="#m8c04ac7fdd" y="247.536"/>
      </g>
     </g>
     <g id="text_10">
      <!-- 0.10 -->
      <g transform="translate(49.004844 253.336647)scale(0.15268 -0.15268)">
       <use xlink:href="#DejaVuSans-30"/>
       <use x="63.623047" xlink:href="#DejaVuSans-2e"/>
       <use x="95.410156" xlink:href="#DejaVuSans-31"/>
       <use x="159.033203" xlink:href="#DejaVuSans-30"/>
      </g>
     </g>
    </g>
    <g id="ytick_4">
     <g id="line2d_30">
      <path clip-path="url(#pb3dd19ab82)" d="M 90 182.304 
L 648 182.304 
" style="fill:none;stroke:#b0b0b0;stroke-linecap:square;stroke-width:0.8;"/>
     </g>
     <g id="line2d_31">
      <g>
       <use style="stroke:#000000;stroke-width:0.8;" x="90" xlink:href="#m8c04ac7fdd" y="182.304"/>
      </g>
     </g>
     <g id="text_11">
      <!-- 0.15 -->
      <g transform="translate(49.004844 188.104647)scale(0.15268 -0.15268)">
       <use xlink:href="#DejaVuSans-30"/>
       <use x="63.623047" xlink:href="#DejaVuSans-2e"/>
       <use x="95.410156" xlink:href="#DejaVuSans-31"/>
       <use x="159.033203" xlink:href="#DejaVuSans-35"/>
      </g>
     </g>
    </g>
    <g id="ytick_5">
     <g id="line2d_32">
      <path clip-path="url(#pb3dd19ab82)" d="M 90 117.072 
L 648 117.072 
" style="fill:none;stroke:#b0b0b0;stroke-linecap:square;stroke-width:0.8;"/>
     </g>
     <g id="line2d_33">
      <g>
       <use style="stroke:#000000;stroke-width:0.8;" x="90" xlink:href="#m8c04ac7fdd" y="117.072"/>
      </g>
     </g>
     <g id="text_12">
      <!-- 0.20 -->
      <g transform="translate(49.004844 122.872647)scale(0.15268 -0.15268)">
       <use xlink:href="#DejaVuSans-30"/>
       <use x="63.623047" xlink:href="#DejaVuSans-2e"/>
       <use x="95.410156" xlink:href="#DejaVuSans-32"/>
       <use x="159.033203" xlink:href="#DejaVuSans-30"/>
      </g>
     </g>
    </g>
    <g id="ytick_6">
     <g id="line2d_34">
      <path clip-path="url(#pb3dd19ab82)" d="M 90 51.84 
L 648 51.84 
" style="fill:none;stroke:#b0b0b0;stroke-linecap:square;stroke-width:0.8;"/>
     </g>
     <g id="line2d_35">
      <g>
       <use style="stroke:#000000;stroke-width:0.8;" x="90" xlink:href="#m8c04ac7fdd" y="51.84"/>
      </g>
     </g>
     <g id="text_13">
      <!-- 0.25 -->
      <g transform="translate(49.004844 57.640647)scale(0.15268 -0.15268)">
       <use xlink:href="#DejaVuSans-30"/>
       <use x="63.623047" xlink:href="#DejaVuSans-2e"/>
       <use x="95.410156" xlink:href="#DejaVuSans-32"/>
       <use x="159.033203" xlink:href="#DejaVuSans-35"/>
      </g>
     </g>
    </g>
    <g id="ytick_7">
     <g id="line2d_36">
      <defs>
       <path d="M 0 0 
L -2 0 
" id="m3bfa1caff5" style="stroke:#000000;stroke-width:0.6;"/>
      </defs>
      <g>
       <use style="stroke:#000000;stroke-width:0.6;" x="90" xlink:href="#m3bfa1caff5" y="378"/>
      </g>
     </g>
    </g>
    <g id="ytick_8">
     <g id="line2d_37">
      <g>
       <use style="stroke:#000000;stroke-width:0.6;" x="90" xlink:href="#m3bfa1caff5" y="345.384"/>
      </g>
     </g>
    </g>
    <g id="ytick_9">
     <g id="line2d_38">
      <g>
       <use style="stroke:#000000;stroke-width:0.6;" x="90" xlink:href="#m3bfa1caff5" y="312.768"/>
      </g>
     </g>
    </g>
    <g id="ytick_10">
     <g id="line2d_39">
      <g>
       <use style="stroke:#000000;stroke-width:0.6;" x="90" xlink:href="#m3bfa1caff5" y="280.152"/>
      </g>
     </g>
    </g>
    <g id="ytick_11">
     <g id="line2d_40">
      <g>
       <use style="stroke:#000000;stroke-width:0.6;" x="90" xlink:href="#m3bfa1caff5" y="247.536"/>
      </g>
     </g>
    </g>
    <g id="ytick_12">
     <g id="line2d_41">
      <g>
       <use style="stroke:#000000;stroke-width:0.6;" x="90" xlink:href="#m3bfa1caff5" y="214.92"/>
      </g>
     </g>
    </g>
    <g id="ytick_13">
     <g id="line2d_42">
      <g>
       <use style="stroke:#000000;stroke-width:0.6;" x="90" xlink:href="#m3bfa1caff5" y="182.304"/>
      </g>
     </g>
    </g>
    <g id="ytick_14">
     <g id="line2d_43">
      <g>
       <use style="stroke:#000000;stroke-width:0.6;" x="90" xlink:href="#m3bfa1caff5" y="149.688"/>
      </g>
     </g>
    </g>
    <g id="ytick_15">
     <g id="line2d_44">
      <g>
       <use style="stroke:#000000;stroke-width:0.6;" x="90" xlink:href="#m3bfa1caff5" y="117.072"/>
      </g>
     </g>
    </g>
    <g id="ytick_16">
     <g id="line2d_45">
      <g>
       <use style="stroke:#000000;stroke-width:0.6;" x="90" xlink:href="#m3bfa1caff5" y="84.456"/>
      </g>
     </g>
    </g>
    <g id="ytick_17">
     <g id="line2d_46">
      <g>
       <use style="stroke:#000000;stroke-width:0.6;" x="90" xlink:href="#m3bfa1caff5" y="51.84"/>
      </g>
     </g>
    </g>
    <g id="text_14">
     <!-- Angle [rad] -->
     <defs>
      <path d="M 34.1875 63.1875 
L 20.796875 26.90625 
L 47.609375 26.90625 
z
M 28.609375 72.90625 
L 39.796875 72.90625 
L 67.578125 0 
L 57.328125 0 
L 50.6875 18.703125 
L 17.828125 18.703125 
L 11.1875 0 
L 0.78125 0 
z
" id="DejaVuSans-41"/>
      <path d="M 54.890625 33.015625 
L 54.890625 0 
L 45.90625 0 
L 45.90625 32.71875 
Q 45.90625 40.484375 42.875 44.328125 
Q 39.84375 48.1875 33.796875 48.1875 
Q 26.515625 48.1875 22.3125 43.546875 
Q 18.109375 38.921875 18.109375 30.90625 
L 18.109375 0 
L 9.078125 0 
L 9.078125 54.6875 
L 18.109375 54.6875 
L 18.109375 46.1875 
Q 21.34375 51.125 25.703125 53.5625 
Q 30.078125 56 35.796875 56 
Q 45.21875 56 50.046875 50.171875 
Q 54.890625 44.34375 54.890625 33.015625 
z
" id="DejaVuSans-6e"/>
      <path d="M 45.40625 27.984375 
Q 45.40625 37.75 41.375 43.109375 
Q 37.359375 48.484375 30.078125 48.484375 
Q 22.859375 48.484375 18.828125 43.109375 
Q 14.796875 37.75 14.796875 27.984375 
Q 14.796875 18.265625 18.828125 12.890625 
Q 22.859375 7.515625 30.078125 7.515625 
Q 37.359375 7.515625 41.375 12.890625 
Q 45.40625 18.265625 45.40625 27.984375 
z
M 54.390625 6.78125 
Q 54.390625 -7.171875 48.1875 -13.984375 
Q 42 -20.796875 29.203125 -20.796875 
Q 24.46875 -20.796875 20.265625 -20.09375 
Q 16.0625 -19.390625 12.109375 -17.921875 
L 12.109375 -9.1875 
Q 16.0625 -11.328125 19.921875 -12.34375 
Q 23.78125 -13.375 27.78125 -13.375 
Q 36.625 -13.375 41.015625 -8.765625 
Q 45.40625 -4.15625 45.40625 5.171875 
L 45.40625 9.625 
Q 42.625 4.78125 38.28125 2.390625 
Q 33.9375 0 27.875 0 
Q 17.828125 0 11.671875 7.65625 
Q 5.515625 15.328125 5.515625 27.984375 
Q 5.515625 40.671875 11.671875 48.328125 
Q 17.828125 56 27.875 56 
Q 33.9375 56 38.28125 53.609375 
Q 42.625 51.21875 45.40625 46.390625 
L 45.40625 54.6875 
L 54.390625 54.6875 
z
" id="DejaVuSans-67"/>
      <path d="M 9.421875 75.984375 
L 18.40625 75.984375 
L 18.40625 0 
L 9.421875 0 
z
" id="DejaVuSans-6c"/>
      <path d="M 41.109375 46.296875 
Q 39.59375 47.171875 37.8125 47.578125 
Q 36.03125 48 33.890625 48 
Q 26.265625 48 22.1875 43.046875 
Q 18.109375 38.09375 18.109375 28.8125 
L 18.109375 0 
L 9.078125 0 
L 9.078125 54.6875 
L 18.109375 54.6875 
L 18.109375 46.1875 
Q 20.953125 51.171875 25.484375 53.578125 
Q 30.03125 56 36.53125 56 
Q 37.453125 56 38.578125 55.875 
Q 39.703125 55.765625 41.0625 55.515625 
z
" id="DejaVuSans-72"/>
      <path d="M 34.28125 27.484375 
Q 23.390625 27.484375 19.1875 25 
Q 14.984375 22.515625 14.984375 16.5 
Q 14.984375 11.71875 18.140625 8.90625 
Q 21.296875 6.109375 26.703125 6.109375 
Q 34.1875 6.109375 38.703125 11.40625 
Q 43.21875 16.703125 43.21875 25.484375 
L 43.21875 27.484375 
z
M 52.203125 31.203125 
L 52.203125 0 
L 43.21875 0 
L 43.21875 8.296875 
Q 40.140625 3.328125 35.546875 0.953125 
Q 30.953125 -1.421875 24.3125 -1.421875 
Q 15.921875 -1.421875 10.953125 3.296875 
Q 6 8.015625 6 15.921875 
Q 6 25.140625 12.171875 29.828125 
Q 18.359375 34.515625 30.609375 34.515625 
L 43.21875 34.515625 
L 43.21875 35.40625 
Q 43.21875 41.609375 39.140625 45 
Q 35.0625 48.390625 27.6875 48.390625 
Q 23 48.390625 18.546875 47.265625 
Q 14.109375 46.140625 10.015625 43.890625 
L 10.015625 52.203125 
Q 14.9375 54.109375 19.578125 55.046875 
Q 24.21875 56 28.609375 56 
Q 40.484375 56 46.34375 49.84375 
Q 52.203125 43.703125 52.203125 31.203125 
z
" id="DejaVuSans-61"/>
      <path d="M 45.40625 46.390625 
L 45.40625 75.984375 
L 54.390625 75.984375 
L 54.390625 0 
L 45.40625 0 
L 45.40625 8.203125 
Q 42.578125 3.328125 38.25 0.953125 
Q 33.9375 -1.421875 27.875 -1.421875 
Q 17.96875 -1.421875 11.734375 6.484375 
Q 5.515625 14.40625 5.515625 27.296875 
Q 5.515625 40.1875 11.734375 48.09375 
Q 17.96875 56 27.875 56 
Q 33.9375 56 38.25 53.625 
Q 42.578125 51.265625 45.40625 46.390625 
z
M 14.796875 27.296875 
Q 14.796875 17.390625 18.875 11.75 
Q 22.953125 6.109375 30.078125 6.109375 
Q 37.203125 6.109375 41.296875 11.75 
Q 45.40625 17.390625 45.40625 27.296875 
Q 45.40625 37.203125 41.296875 42.84375 
Q 37.203125 48.484375 30.078125 48.484375 
Q 22.953125 48.484375 18.875 42.84375 
Q 14.796875 37.203125 14.796875 27.296875 
z
" id="DejaVuSans-64"/>
     </defs>
     <g transform="translate(41.193608 266.257139)rotate(-90)scale(0.18326 -0.18326)">
      <use xlink:href="#DejaVuSans-41"/>
      <use x="68.408203" xlink:href="#DejaVuSans-6e"/>
      <use x="131.787109" xlink:href="#DejaVuSans-67"/>
      <use x="195.263672" xlink:href="#DejaVuSans-6c"/>
      <use x="223.046875" xlink:href="#DejaVuSans-65"/>
      <use x="284.570312" xlink:href="#DejaVuSans-20"/>
      <use x="316.357422" xlink:href="#DejaVuSans-5b"/>
      <use x="355.371094" xlink:href="#DejaVuSans-72"/>
      <use x="396.484375" xlink:href="#DejaVuSans-61"/>
      <use x="457.763672" xlink:href="#DejaVuSans-64"/>
      <use x="521.240234" xlink:href="#DejaVuSans-5d"/>
     </g>
    </g>
   </g>
   <g id="line2d_47">
    <path clip-path="url(#pb3dd19ab82)" d="M 90 252.920527 
L 637.058824 58.235294 
L 637.058824 58.235294 
" style="fill:none;stroke:#ff0000;stroke-linecap:square;"/>
   </g>
   <g id="patch_3">
    <path d="M 90 378 
L 90 51.84 
" style="fill:none;stroke:#000000;stroke-linecap:square;stroke-linejoin:miter;stroke-width:0.8;"/>
   </g>
   <g id="patch_4">
    <path d="M 648 378 
L 648 51.84 
" style="fill:none;stroke:#000000;stroke-linecap:square;stroke-linejoin:miter;stroke-width:0.8;"/>
   </g>
   <g id="patch_5">
    <path d="M 90 378 
L 648 378 
" style="fill:none;stroke:#000000;stroke-linecap:square;stroke-linejoin:miter;stroke-width:0.8;"/>
   </g>
   <g id="patch_6">
    <path d="M 90 51.84 
L 648 51.84 
" style="fill:none;stroke:#000000;stroke-linecap:square;stroke-linejoin:miter;stroke-width:0.8;"/>
   </g>
   <g id="text_15">
    <!-- Effective steering $\delta$ -->
    <defs>
     <path d="M 9.1875 72.90625 
L 59.90625 72.90625 
L 59.90625 58.6875 
L 27.984375 58.6875 
L 27.984375 45.125 
L 58.015625 45.125 
L 58.015625 30.90625 
L 27.984375 30.90625 
L 27.984375 14.203125 
L 60.984375 14.203125 
L 60.984375 0 
L 9.1875 0 
z
" id="DejaVuSans-Bold-45"/>
     <path d="M 44.390625 75.984375 
L 44.390625 64.5 
L 34.71875 64.5 
Q 31 64.5 29.53125 63.15625 
Q 28.078125 61.8125 28.078125 58.5 
L 28.078125 54.6875 
L 43.015625 54.6875 
L 43.015625 42.1875 
L 28.078125 42.1875 
L 28.078125 0 
L 10.59375 0 
L 10.59375 42.1875 
L 1.90625 42.1875 
L 1.90625 54.6875 
L 10.59375 54.6875 
L 10.59375 58.5 
Q 10.59375 67.4375 15.578125 71.703125 
Q 20.5625 75.984375 31 75.984375 
z
" id="DejaVuSans-Bold-66"/>
     <path d="M 62.984375 27.484375 
L 62.984375 22.515625 
L 22.125 22.515625 
Q 22.75 16.359375 26.5625 13.28125 
Q 30.375 10.203125 37.203125 10.203125 
Q 42.71875 10.203125 48.5 11.84375 
Q 54.296875 13.484375 60.40625 16.796875 
L 60.40625 3.328125 
Q 54.203125 0.984375 48 -0.21875 
Q 41.796875 -1.421875 35.59375 -1.421875 
Q 20.75 -1.421875 12.515625 6.125 
Q 4.296875 13.671875 4.296875 27.296875 
Q 4.296875 40.671875 12.375 48.328125 
Q 20.453125 56 34.625 56 
Q 47.515625 56 55.25 48.234375 
Q 62.984375 40.484375 62.984375 27.484375 
z
M 45.015625 33.296875 
Q 45.015625 38.28125 42.109375 41.328125 
Q 39.203125 44.390625 34.515625 44.390625 
Q 29.4375 44.390625 26.265625 41.53125 
Q 23.09375 38.671875 22.3125 33.296875 
z
" id="DejaVuSans-Bold-65"/>
     <path d="M 52.59375 52.984375 
L 52.59375 38.71875 
Q 49.03125 41.15625 45.4375 42.328125 
Q 41.84375 43.5 37.984375 43.5 
Q 30.671875 43.5 26.59375 39.234375 
Q 22.515625 34.96875 22.515625 27.296875 
Q 22.515625 19.625 26.59375 15.34375 
Q 30.671875 11.078125 37.984375 11.078125 
Q 42.09375 11.078125 45.78125 12.296875 
Q 49.46875 13.53125 52.59375 15.921875 
L 52.59375 1.609375 
Q 48.484375 0.09375 44.265625 -0.65625 
Q 40.046875 -1.421875 35.796875 -1.421875 
Q 21 -1.421875 12.640625 6.171875 
Q 4.296875 13.765625 4.296875 27.296875 
Q 4.296875 40.828125 12.640625 48.40625 
Q 21 56 35.796875 56 
Q 40.09375 56 44.265625 55.25 
Q 48.4375 54.5 52.59375 52.984375 
z
" id="DejaVuSans-Bold-63"/>
     <path d="M 27.484375 70.21875 
L 27.484375 54.6875 
L 45.515625 54.6875 
L 45.515625 42.1875 
L 27.484375 42.1875 
L 27.484375 19 
Q 27.484375 15.1875 29 13.84375 
Q 30.515625 12.5 35.015625 12.5 
L 44 12.5 
L 44 0 
L 29 0 
Q 18.65625 0 14.328125 4.3125 
Q 10.015625 8.640625 10.015625 19 
L 10.015625 42.1875 
L 1.3125 42.1875 
L 1.3125 54.6875 
L 10.015625 54.6875 
L 10.015625 70.21875 
z
" id="DejaVuSans-Bold-74"/>
     <path d="M 8.40625 54.6875 
L 25.875 54.6875 
L 25.875 0 
L 8.40625 0 
z
M 8.40625 75.984375 
L 25.875 75.984375 
L 25.875 61.71875 
L 8.40625 61.71875 
z
" id="DejaVuSans-Bold-69"/>
     <path d="M 1.515625 54.6875 
L 19 54.6875 
L 32.625 16.890625 
L 46.1875 54.6875 
L 63.71875 54.6875 
L 42.1875 0 
L 23 0 
z
" id="DejaVuSans-Bold-76"/>
     <path id="DejaVuSans-Bold-20"/>
     <path d="M 51.125 52.984375 
L 51.125 39.703125 
Q 45.515625 42.046875 40.28125 43.21875 
Q 35.0625 44.390625 30.421875 44.390625 
Q 25.4375 44.390625 23.015625 43.140625 
Q 20.609375 41.890625 20.609375 39.3125 
Q 20.609375 37.203125 22.4375 36.078125 
Q 24.265625 34.96875 29 34.421875 
L 32.078125 33.984375 
Q 45.515625 32.28125 50.140625 28.375 
Q 54.78125 24.46875 54.78125 16.109375 
Q 54.78125 7.375 48.328125 2.96875 
Q 41.890625 -1.421875 29.109375 -1.421875 
Q 23.6875 -1.421875 17.890625 -0.5625 
Q 12.109375 0.296875 6 2 
L 6 15.28125 
Q 11.234375 12.75 16.71875 11.46875 
Q 22.21875 10.203125 27.875 10.203125 
Q 33.015625 10.203125 35.59375 11.609375 
Q 38.1875 13.03125 38.1875 15.828125 
Q 38.1875 18.171875 36.40625 19.3125 
Q 34.625 20.453125 29.296875 21.09375 
L 26.21875 21.484375 
Q 14.546875 22.953125 9.859375 26.90625 
Q 5.171875 30.859375 5.171875 38.921875 
Q 5.171875 47.609375 11.125 51.796875 
Q 17.09375 56 29.390625 56 
Q 34.234375 56 39.546875 55.265625 
Q 44.875 54.546875 51.125 52.984375 
z
" id="DejaVuSans-Bold-73"/>
     <path d="M 49.03125 39.796875 
Q 46.734375 40.875 44.453125 41.375 
Q 42.1875 41.890625 39.890625 41.890625 
Q 33.15625 41.890625 29.515625 37.5625 
Q 25.875 33.25 25.875 25.203125 
L 25.875 0 
L 8.40625 0 
L 8.40625 54.6875 
L 25.875 54.6875 
L 25.875 45.703125 
Q 29.25 51.078125 33.609375 53.53125 
Q 37.984375 56 44.09375 56 
Q 44.96875 56 45.984375 55.921875 
Q 47.015625 55.859375 48.96875 55.609375 
z
" id="DejaVuSans-Bold-72"/>
     <path d="M 63.375 33.296875 
L 63.375 0 
L 45.796875 0 
L 45.796875 5.421875 
L 45.796875 25.484375 
Q 45.796875 32.5625 45.484375 35.25 
Q 45.171875 37.9375 44.390625 39.203125 
Q 43.359375 40.921875 41.59375 41.875 
Q 39.84375 42.828125 37.59375 42.828125 
Q 32.125 42.828125 29 38.59375 
Q 25.875 34.375 25.875 26.90625 
L 25.875 0 
L 8.40625 0 
L 8.40625 54.6875 
L 25.875 54.6875 
L 25.875 46.6875 
Q 29.828125 51.46875 34.265625 53.734375 
Q 38.71875 56 44.09375 56 
Q 53.5625 56 58.46875 50.1875 
Q 63.375 44.390625 63.375 33.296875 
z
" id="DejaVuSans-Bold-6e"/>
     <path d="M 45.609375 9.28125 
Q 42 4.5 37.640625 2.25 
Q 33.296875 0 27.59375 0 
Q 17.578125 0 11.03125 7.875 
Q 4.5 15.765625 4.5 27.984375 
Q 4.5 40.234375 11.03125 48.0625 
Q 17.578125 55.90625 27.59375 55.90625 
Q 33.296875 55.90625 37.640625 53.65625 
Q 42 51.421875 45.609375 46.578125 
L 45.609375 54.6875 
L 63.1875 54.6875 
L 63.1875 5.515625 
Q 63.1875 -7.671875 54.859375 -14.625 
Q 46.53125 -21.578125 30.71875 -21.578125 
Q 25.59375 -21.578125 20.796875 -20.796875 
Q 16.015625 -20.015625 11.1875 -18.40625 
L 11.1875 -4.78125 
Q 15.765625 -7.421875 20.15625 -8.71875 
Q 24.5625 -10.015625 29 -10.015625 
Q 37.59375 -10.015625 41.59375 -6.25 
Q 45.609375 -2.484375 45.609375 5.515625 
z
M 34.078125 43.3125 
Q 28.65625 43.3125 25.625 39.296875 
Q 22.609375 35.296875 22.609375 27.984375 
Q 22.609375 20.453125 25.53125 16.578125 
Q 28.46875 12.703125 34.078125 12.703125 
Q 39.546875 12.703125 42.578125 16.703125 
Q 45.609375 20.703125 45.609375 27.984375 
Q 45.609375 35.296875 42.578125 39.296875 
Q 39.546875 43.3125 34.078125 43.3125 
z
" id="DejaVuSans-Bold-67"/>
     <path d="M 54.25 63.328125 
Q 49.953125 66.75 38.28125 66.75 
Q 25.921875 66.75 24.8125 61.03125 
Q 23.921875 56.546875 36.375 54.203125 
Q 46.140625 52.390625 50.828125 46.921875 
Q 56.5 40.328125 53.859375 26.8125 
Q 51.3125 13.875 43.171875 6.25 
Q 34.96875 -1.421875 23.25 -1.421875 
Q 11.578125 -1.421875 6.34375 6.25 
Q 1.125 13.875 3.765625 27.296875 
Q 5.671875 37.25 13.921875 45.3125 
Q 17.140625 48.4375 21.140625 50.203125 
Q 14.265625 54.046875 15.625 60.9375 
Q 18.21875 74.21875 39.75 74.21875 
Q 50.53125 74.21875 55.71875 70.796875 
z
M 27.390625 47.75 
Q 23.828125 46.34375 20.40625 42.78125 
Q 15.140625 37.25 13.234375 27.296875 
Q 11.28125 17.390625 14.359375 11.8125 
Q 17.484375 6.203125 24.75 6.203125 
Q 31.9375 6.203125 37.203125 11.859375 
Q 42.53125 17.53125 44.34375 26.8125 
Q 46.1875 36.53125 42.671875 41.21875 
Q 38.921875 46.234375 32.859375 46.78125 
Q 29.78125 47.078125 27.390625 47.75 
z
" id="DejaVuSans-Oblique-3b4"/>
    </defs>
    <g transform="translate(248.22 45.84)scale(0.22 -0.22)">
     <use transform="translate(0 0.015625)" xlink:href="#DejaVuSans-Bold-45"/>
     <use transform="translate(68.310547 0.015625)" xlink:href="#DejaVuSans-Bold-66"/>
     <use transform="translate(111.816406 0.015625)" xlink:href="#DejaVuSans-Bold-66"/>
     <use transform="translate(155.322266 0.015625)" xlink:href="#DejaVuSans-Bold-65"/>
     <use transform="translate(223.144531 0.015625)" xlink:href="#DejaVuSans-Bold-63"/>
     <use transform="translate(282.421875 0.015625)" xlink:href="#DejaVuSans-Bold-74"/>
     <use transform="translate(330.224609 0.015625)" xlink:href="#DejaVuSans-Bold-69"/>
     <use transform="translate(364.501953 0.015625)" xlink:href="#DejaVuSans-Bold-76"/>
     <use transform="translate(429.6875 0.015625)" xlink:href="#DejaVuSans-Bold-65"/>
     <use transform="translate(497.509766 0.015625)" xlink:href="#DejaVuSans-Bold-20"/>
     <use transform="translate(532.324219 0.015625)" xlink:href="#DejaVuSans-Bold-73"/>
     <use transform="translate(591.845703 0.015625)" xlink:href="#DejaVuSans-Bold-74"/>
     <use transform="translate(639.648438 0.015625)" xlink:href="#DejaVuSans-Bold-65"/>
     <use transform="translate(707.470703 0.015625)" xlink:href="#DejaVuSans-Bold-65"/>
     <use transform="translate(775.292969 0.015625)" xlink:href="#DejaVuSans-Bold-72"/>
     <use transform="translate(824.609375 0.015625)" xlink:href="#DejaVuSans-Bold-69"/>
     <use transform="translate(858.886719 0.015625)" xlink:href="#DejaVuSans-Bold-6e"/>
     <use transform="translate(930.078125 0.015625)" xlink:href="#DejaVuSans-Bold-67"/>
     <use transform="translate(1001.660156 0.015625)" xlink:href="#DejaVuSans-Bold-20"/>
     <use transform="translate(1036.474609 0.015625)" xlink:href="#DejaVuSans-Oblique-3b4"/>
    </g>
   </g>
   <g id="legend_1">
    <g id="patch_7">
     <path d="M 98.9166 99.424391 
L 204.665884 99.424391 
Q 207.213484 99.424391 207.213484 96.876791 
L 207.213484 60.7566 
Q 207.213484 58.209 204.665884 58.209 
L 98.9166 58.209 
Q 96.369 58.209 96.369 60.7566 
L 96.369 96.876791 
Q 96.369 99.424391 98.9166 99.424391 
z
" style="fill:#ffffff;opacity:0.8;stroke:#cccccc;stroke-linejoin:miter;"/>
    </g>
    <g id="line2d_48">
     <path d="M 101.4642 68.52479 
L 126.9402 68.52479 
" style="fill:none;stroke:#ff0000;stroke-linecap:square;"/>
    </g>
    <g id="line2d_49"/>
    <g id="text_16">
     <!-- Reference -->
     <defs>
      <path d="M 44.390625 34.1875 
Q 47.5625 33.109375 50.5625 29.59375 
Q 53.5625 26.078125 56.59375 19.921875 
L 66.609375 0 
L 56 0 
L 46.6875 18.703125 
Q 43.0625 26.03125 39.671875 28.421875 
Q 36.28125 30.8125 30.421875 30.8125 
L 19.671875 30.8125 
L 19.671875 0 
L 9.8125 0 
L 9.8125 72.90625 
L 32.078125 72.90625 
Q 44.578125 72.90625 50.734375 67.671875 
Q 56.890625 62.453125 56.890625 51.90625 
Q 56.890625 45.015625 53.6875 40.46875 
Q 50.484375 35.9375 44.390625 34.1875 
z
M 19.671875 64.796875 
L 19.671875 38.921875 
L 32.078125 38.921875 
Q 39.203125 38.921875 42.84375 42.21875 
Q 46.484375 45.515625 46.484375 51.90625 
Q 46.484375 58.296875 42.84375 61.546875 
Q 39.203125 64.796875 32.078125 64.796875 
z
" id="DejaVuSans-52"/>
      <path d="M 37.109375 75.984375 
L 37.109375 68.5 
L 28.515625 68.5 
Q 23.6875 68.5 21.796875 66.546875 
Q 19.921875 64.59375 19.921875 59.515625 
L 19.921875 54.6875 
L 34.71875 54.6875 
L 34.71875 47.703125 
L 19.921875 47.703125 
L 19.921875 0 
L 10.890625 0 
L 10.890625 47.703125 
L 2.296875 47.703125 
L 2.296875 54.6875 
L 10.890625 54.6875 
L 10.890625 58.5 
Q 10.890625 67.625 15.140625 71.796875 
Q 19.390625 75.984375 28.609375 75.984375 
z
" id="DejaVuSans-66"/>
      <path d="M 48.78125 52.59375 
L 48.78125 44.1875 
Q 44.96875 46.296875 41.140625 47.34375 
Q 37.3125 48.390625 33.40625 48.390625 
Q 24.65625 48.390625 19.8125 42.84375 
Q 14.984375 37.3125 14.984375 27.296875 
Q 14.984375 17.28125 19.8125 11.734375 
Q 24.65625 6.203125 33.40625 6.203125 
Q 37.3125 6.203125 41.140625 7.25 
Q 44.96875 8.296875 48.78125 10.40625 
L 48.78125 2.09375 
Q 45.015625 0.34375 40.984375 -0.53125 
Q 36.96875 -1.421875 32.421875 -1.421875 
Q 20.0625 -1.421875 12.78125 6.34375 
Q 5.515625 14.109375 5.515625 27.296875 
Q 5.515625 40.671875 12.859375 48.328125 
Q 20.21875 56 33.015625 56 
Q 37.15625 56 41.109375 55.140625 
Q 45.0625 54.296875 48.78125 52.59375 
z
" id="DejaVuSans-63"/>
     </defs>
     <g transform="translate(137.1306 72.98309)scale(0.12738 -0.12738)">
      <use xlink:href="#DejaVuSans-52"/>
      <use x="69.419922" xlink:href="#DejaVuSans-65"/>
      <use x="130.943359" xlink:href="#DejaVuSans-66"/>
      <use x="166.148438" xlink:href="#DejaVuSans-65"/>
      <use x="227.671875" xlink:href="#DejaVuSans-72"/>
      <use x="268.753906" xlink:href="#DejaVuSans-65"/>
      <use x="330.277344" xlink:href="#DejaVuSans-6e"/>
      <use x="393.65625" xlink:href="#DejaVuSans-63"/>
      <use x="448.636719" xlink:href="#DejaVuSans-65"/>
     </g>
    </g>
    <g id="PathCollection_2">
     <g>
      <use style="stroke:#000000;" x="114.2022" xlink:href="#mebfdf3b6cf" y="88.33636"/>
     </g>
    </g>
    <g id="text_17">
     <!-- Imu $\delta$ -->
     <defs>
      <path d="M 9.8125 72.90625 
L 19.671875 72.90625 
L 19.671875 0 
L 9.8125 0 
z
" id="DejaVuSans-49"/>
      <path d="M 8.5 21.578125 
L 8.5 54.6875 
L 17.484375 54.6875 
L 17.484375 21.921875 
Q 17.484375 14.15625 20.5 10.265625 
Q 23.53125 6.390625 29.59375 6.390625 
Q 36.859375 6.390625 41.078125 11.03125 
Q 45.3125 15.671875 45.3125 23.6875 
L 45.3125 54.6875 
L 54.296875 54.6875 
L 54.296875 0 
L 45.3125 0 
L 45.3125 8.40625 
Q 42.046875 3.421875 37.71875 1 
Q 33.40625 -1.421875 27.6875 -1.421875 
Q 18.265625 -1.421875 13.375 4.4375 
Q 8.5 10.296875 8.5 21.578125 
z
M 31.109375 56 
z
" id="DejaVuSans-75"/>
     </defs>
     <g transform="translate(137.1306 91.680085)scale(0.12738 -0.12738)">
      <use transform="translate(0 0.78125)" xlink:href="#DejaVuSans-49"/>
      <use transform="translate(29.445312 0.78125)" xlink:href="#DejaVuSans-6d"/>
      <use transform="translate(126.857422 0.78125)" xlink:href="#DejaVuSans-75"/>
      <use transform="translate(190.236328 0.78125)" xlink:href="#DejaVuSans-20"/>
      <use transform="translate(222.023438 0.78125)" xlink:href="#DejaVuSans-Oblique-3b4"/>
     </g>
    </g>
   </g>
  </g>
 </g>
 <defs>
  <clipPath id="pb3dd19ab82">
   <rect height="326.16" width="558" x="90" y="51.84"/>
  </clipPath>
 </defs>
</svg>
